<svg width="10" height="10" viewBox="0 0 25 23" fill="none" xmlns="http://www.w3.org/2000/svg">
<path d="M18.7471 0.877549L16.7292 0.406299C12.6933 -0.548284 10.2887 0.237132 8.87499 3.1613C8.51249 3.89838 8.22249 4.79255 7.98083 5.81963L6.79666 10.8826C5.61249 15.9334 7.17124 18.4226 12.21 19.6188L14.24 20.1021C14.9408 20.2713 15.5933 20.3801 16.1975 20.4284C19.9675 20.7909 21.9733 19.0267 22.9883 14.6646L24.1725 9.6138C25.3567 4.56297 23.81 2.06172 18.7471 0.877549ZM16.4754 13.1059C16.3667 13.5167 16.0042 13.7825 15.5933 13.7825C15.5208 13.7825 15.4483 13.7705 15.3637 13.7584L11.8475 12.8642C11.6295 12.7923 11.4468 12.6403 11.3365 12.439C11.2262 12.2376 11.1964 12.0019 11.2532 11.7795C11.31 11.557 11.449 11.3644 11.6423 11.2405C11.8356 11.1167 12.0687 11.0708 12.2946 11.1121L15.8108 12.0063C16.3062 12.1271 16.5962 12.6226 16.4754 13.1059ZM20.0158 9.02172C19.9071 9.43255 19.5446 9.69838 19.1337 9.69838C19.0612 9.69838 18.9887 9.6863 18.9042 9.67422L13.0437 8.18797C12.8257 8.11607 12.6431 7.96409 12.5328 7.76275C12.4225 7.5614 12.3927 7.32569 12.4494 7.10323C12.5062 6.88078 12.6453 6.68816 12.8386 6.56428C13.0319 6.44041 13.265 6.39452 13.4908 6.43588L19.3512 7.92213C19.8467 8.03088 20.1367 8.5263 20.0158 9.02172Z" fill="#1DA1F2"/>
<path d="M13.3168 21.1171C13.6491 21.1945 13.6793 21.6295 13.3555 21.737L11.4463 22.3653C6.64924 23.912 4.12382 22.6191 2.56507 17.822L1.01841 13.0491C-0.528259 8.25201 0.752574 5.71451 5.54966 4.16784L6.18282 3.95759C6.66978 3.79688 7.14345 4.28505 7.00449 4.77926C6.93682 5.02334 6.87157 5.27951 6.80632 5.54534L5.62216 10.6083C4.29299 16.2995 6.23841 19.4412 11.9297 20.7945L13.3168 21.1171Z" fill="#1DA1F2"/>
</svg>
